<svg width="28" height="29" viewBox="0 0 28 29" xmlns="http://www.w3.org/2000/svg"><title>Page 1</title><g fill="none" fill-rule="evenodd"><path d="M18.865 28.03h-9.73a1.003 1.003 0 0 1-1.004-1.005V1.313C8.131.76 8.581.31 9.135.31h9.73c.554 0 1.004.45 1.004 1.003v25.712c0 .555-.45 1.004-1.004 1.004" fill="#EF5350"/><path d="M19.869 1.313c0-.554-.45-1.004-1.003-1.004H9.135c-.554 0-1.003.45-1.003 1.004V8.3h11.737V1.313z" fill="#FF8A80"/><path d="M.14 19.035v-9.73C.14 8.75.59 8.3 1.144 8.3h25.712c.554 0 1.003.449 1.003 1.004v9.73c0 .554-.449 1.004-1.003 1.004H1.144c-.555 0-1.004-.45-1.004-1.004" fill="#EA4335"/><path fill="#D50000" d="M8.132 20.038h11.737V8.301H8.132z"/></g></svg>